<?xml version="1.0" encoding="UTF-8"?>
<svg id="Layer_1" xmlns="http://www.w3.org/2000/svg" xmlns:xlink="http://www.w3.org/1999/xlink" viewBox="0 0 230.63 122.98">
  <defs>
    <style>
      .cls-1 {
        fill: none;
      }

      .cls-2 {
        fill: #689d6a;
      }

      .cls-3 {
        fill: #cc251c;
      }

      .cls-4 {
        fill: #d79822;
      }

      .cls-5 {
        fill: #458487;
      }

      .cls-6 {
        fill: #93578f;
      }

      .cls-7 {
        clip-path: url(#clippath);
      }
    </style>
    <clipPath id="clippath">
      <path class="cls-1" d="M163.32,92.16c-3.31-1.28-7.95.56-10.99.64-2.6.17-3.45-.53-4.35-2.55-.4-.98-.88-2.16-1.43-3.51-1.65-4.07-3.93-9.69-6.51-16.09-2.03-5.01-4.24-10.5-6.5-16.09-2.17-5.38-4.38-10.86-6.5-16.09-2.35-5.82-4.58-11.34-6.5-16.09-2.22-5.49-4.02-9.95-5.12-12.67-.55-1.29-1.04-2.55-2.18-3.27-.87-.54-2.28-.82-4.54-.98-3.19-.24-8.3-.16-12.67-.17-3.19.23-7.59-.52-9.4,2.69l-.05.11c-1.3,3.44-1.71,9.52.81,12.67.68.79,1.65,1.27,2.76,1.61,2.32.71,5.25.77,7.45,1.69,3.95,1.62,5.02,6.26,6.27,9.96.46,1.55.93,3.03,1.23,4.44.53,2.54.46,4.89-1.43,7.2-1.37,2.11-3.39,5.2-5.81,8.89-3.05,4.65-6.72,10.26-10.54,16.09-3.53,5.38-7.17,10.94-10.54,16.09-4.18,6.38-7.93,12.12-10.51,16.09-.52.8-1,1.53-1.42,2.18-1.2,1.92-1.57,3.77,1.1,4.48,3.84,1.12,15.25,1.88,18.35-.77,1.47-1.72,3-3.72,4.57-5.9,3.44-4.74,7.13-10.36,11.01-16.09,1.94-2.87,3.93-5.76,5.96-8.57,2.09-3.02,3.85-5.61,5.2-7.51.04-.05.08-.11.12-.17,1.78-2.38,3.93-4.85,5.89-2.18.49.6.96,1.46,1.38,2.35.24.51.47,1.04.66,1.53,1.66,3.83,3.69,9.03,5.85,14.56,2.09,5.35,4.29,11.02,6.39,16.09,1.72,4.14,3.37,7.89,4.83,10.73,1.43,1.76,2.81,1.56,5.34,1.13,2.4-.47,5.77-1.59,9.61-2.78,3.68-1.15,7.58-2.35,10.57-3.31,3.19-1.09,6.64-2.2,6.68-5.04,0-.24,0-.48,0-.73-.12-3.83-1.59-8.95-5.05-10.67Z"/>
    </clipPath>
  </defs>
  <g class="cls-7">
    <path class="cls-2" d="M7.88,25.28l222.31-.9c-.46-2.15-1.19-4.38-1.9-6.74-1.93-5.61-3.58-12.67-9.6-15.11C215.33,1.14,211.47-.02,207.34,0L4.33.82C1.25.84-.84,3.95.33,6.8c.98,2.41,2.05,5.02,3.19,7.8,1.36,3.34,2.83,6.92,4.36,10.68Z"/>
    <path class="cls-5" d="M230.18,24.37l-222.31.9c1.91,4.67,3.92,9.6,6,14.69,1.31,3.2,2.64,6.46,3.98,9.74l201.42-.82c3.65-5.63,6.71-10.34,8.78-13.55,2.86-3.53,2.95-7.1,2.13-10.96Z"/>
    <path class="cls-4" d="M24.24,65.33c1.21,2.96,2.41,5.9,3.6,8.8l175.5-.71c5.77-8.88,11.33-17.44,15.93-24.53l-201.42.82c2.12,5.18,4.26,10.43,6.38,15.63Z"/>
    <path class="cls-3" d="M34.61,90.7c1.11,2.72,2.19,5.34,3.22,7.86l149.58-.61c5.09-7.85,10.6-16.32,15.93-24.53l-175.5.71c2.34,5.74,4.63,11.32,6.77,16.57Z"/>
    <path class="cls-6" d="M44.99,116.06c.87,2.13,1.64,3.99,2.28,5.53,0,0,0,.01,0,.02.38.84,1.23,1.37,2.15,1.37l122.08-.5c3.91-6.05,9.58-14.8,15.89-24.53l-149.58.61c2.79,6.82,5.25,12.82,7.17,17.5Z"/>
  </g>
</svg>