<?xml version="1.0" encoding="UTF-8"?>
<svg id="Layer_1" data-name="Layer 1" xmlns="http://www.w3.org/2000/svg" viewBox="0 0 310.67 151.7">
  <defs>
    <style>
      .cls-1 {
        fill: #689d6a;
      }

      .cls-2 {
        fill: #cc251c;
      }

      .cls-3 {
        fill: #d79822;
      }

      .cls-4 {
        fill: #458487;
      }

      .cls-5 {
        fill: #ffb000;
      }

      .cls-6 {
        fill: #93578f;
      }
    </style>
  </defs>
  <path class="cls-3" d="M225.76,87.13c-2.71-3.69-5.68-.28-8.14,3.02-.05.07-.11.16-.16.23h10.22c-.58-1.23-1.24-2.42-1.91-3.25Z"/>
  <path class="cls-2" d="M228.58,92.49c-.27-.68-.58-1.4-.91-2.11h-10.22c-1.86,2.63-4.29,6.21-7.19,10.39-2.81,3.9-5.56,7.89-8.24,11.86h34.65c-2.99-7.65-5.8-14.84-8.09-20.14Z"/>
  <path class="cls-6" d="M202.03,112.63c-5.37,7.92-10.47,15.69-15.23,22.25h50.81c3.77,0,6.35-3.8,4.95-7.3-1.97-4.93-3.96-10.03-5.87-14.94h-34.65Z"/>
  <path class="cls-5" d="M303.68,120.12c-4.58-1.77-11,.77-15.2.89-3.6.24-4.77-.73-6.01-3.52-.55-1.35-1.22-2.99-1.97-4.85-2.28-5.63-5.43-13.4-9.01-22.25-2.8-6.93-5.87-14.52-8.99-22.25-3.01-7.45-6.06-15.02-8.98-22.25-3.25-8.05-6.33-15.68-8.98-22.25-3.07-7.59-5.56-13.77-7.08-17.52-.77-1.78-1.43-3.53-3.01-4.52-1.21-.75-3.15-1.13-6.28-1.35-4.42-.33-11.48-.22-17.52-.23-4.42.31-10.5-.72-12.99,3.72l-.07.15c-1.8,4.76-2.37,13.16,1.12,17.53.94,1.1,2.28,1.76,3.81,2.23,3.21.98,7.26,1.06,10.31,2.33,5.47,2.24,6.94,8.66,8.67,13.78.63,2.15,1.29,4.18,1.7,6.14.73,3.51.64,6.76-1.98,9.96-1.9,2.91-4.69,7.19-8.04,12.29-4.21,6.44-9.3,14.19-14.58,22.25-4.88,7.45-9.92,15.13-14.58,22.25-5.78,8.83-10.97,16.76-14.54,22.25-.72,1.1-1.38,2.12-1.96,3.02-1.66,2.66-2.17,5.22,1.52,6.2,5.31,1.55,21.1,2.59,25.38-1.06,2.03-2.39,4.14-5.15,6.33-8.16,4.76-6.55,9.86-14.33,15.23-22.25,2.69-3.96,5.44-7.96,8.24-11.86,2.89-4.18,5.33-7.76,7.19-10.39.05-.08.11-.16.16-.23,2.46-3.29,5.43-6.7,8.14-3.02.68.83,1.33,2.02,1.91,3.25.33.71.64,1.43.91,2.11,2.3,5.3,5.11,12.48,8.09,20.14,2.89,7.4,5.94,15.24,8.84,22.25,2.38,5.73,4.66,10.91,6.68,14.85,1.97,2.44,3.88,2.16,7.38,1.56,3.32-.65,7.99-2.19,13.29-3.84,5.09-1.6,10.48-3.25,14.62-4.58,4.41-1.51,9.18-3.04,9.24-6.97,0-.33,0-.67-.01-1.02-.17-5.3-2.19-12.38-6.98-14.76Z"/>
  <path class="cls-1" d="M7.09,45.88h202.16c-.41-1.96-1.07-3.99-1.7-6.14-1.73-5.11-3.21-11.54-8.67-13.78-3.05-1.27-6.55-2.33-10.31-2.33H3.95c-2.8,0-4.71,2.82-3.66,5.42.89,2.19,1.85,4.57,2.87,7.11,1.23,3.04,2.55,6.31,3.93,9.73Z"/>
  <path class="cls-4" d="M209.24,45.88H7.09c1.72,4.25,3.53,8.74,5.4,13.38,1.18,2.91,2.37,5.88,3.58,8.87h183.16c3.34-5.1,6.14-9.38,8.04-12.29,2.62-3.2,2.71-6.45,1.98-9.96Z"/>
  <path class="cls-3" d="M21.82,82.37c1.09,2.7,2.17,5.37,3.24,8.01h159.59c5.28-8.06,10.36-15.81,14.58-22.25H16.07c1.91,4.72,3.84,9.5,5.75,14.23Z"/>
  <path class="cls-2" d="M31.15,105.47c1,2.48,1.97,4.87,2.9,7.16h136.02c4.66-7.12,9.7-14.8,14.58-22.25H25.06c2.11,5.22,4.16,10.31,6.1,15.09Z"/>
  <path class="cls-6" d="M40.51,128.58c.79,1.94,1.48,3.64,2.05,5.04,0,0,0,0,0,.01.34.77,1.12,1.25,1.95,1.25h111.01c3.57-5.49,8.76-13.42,14.54-22.25H34.05c2.51,6.21,4.73,11.68,6.46,15.94Z"/>
</svg>